<svg xmlns="http://www.w3.org/2000/svg" xmlns:xlink="http://www.w3.org/1999/xlink" viewBox="0 0 296.71 80.41"><defs><style>.cls-1{fill:url(#linear-gradient);}.cls-2,.cls-5{fill:#fff;}.cls-3{fill:url(#New_Gradient_Swatch);}.cls-4{fill:#bcbec0;}.cls-5{font-size:10px;font-family:Montserrat-ExtraBold, Montserrat;font-weight:800;}.cls-6{letter-spacing:-0.02em;}.cls-7{letter-spacing:-0.01em;}.cls-8{letter-spacing:-0.01em;}</style><linearGradient id="linear-gradient" x1="4.82" y1="17.05" x2="24.9" y2="-3.03" gradientUnits="userSpaceOnUse"><stop offset="0" stop-color="#bc3d2f"/><stop offset="1" stop-color="#8c43ac"/></linearGradient><linearGradient id="New_Gradient_Swatch" y1="37.68" x2="296.71" y2="37.68" gradientUnits="userSpaceOnUse"><stop offset="0" stop-color="#5485ee"/><stop offset="1" stop-color="#42d7dd"/></linearGradient></defs><g id="Layer_2" data-name="Layer 2"><g id="Layer_1-2" data-name="Layer 1"><path class="cls-1" d="M6.11,0H25.4a6.11,6.11,0,0,1,6.11,6.11v0a6.11,6.11,0,0,1-6.11,6.11H0a0,0,0,0,1,0,0V6.11A6.11,6.11,0,0,1,6.11,0Z"/><path class="cls-2" d="M12.24,4.77,10.66,9h-1L8.6,6.1,7.48,9h-1L5,4.77h1L7,7.92,8.2,4.77H9l1.15,3.17,1.16-3.17Z"/><path class="cls-2" d="M12.79,3.47a.61.61,0,0,1,.64-.6.6.6,0,0,1,.64.58.64.64,0,0,1-1.28,0Zm.14,1.3h1V9h-1Z"/><path class="cls-2" d="M19.45,6.6V9h-1V6.72c0-.76-.38-1.12-1-1.12a1.13,1.13,0,0,0-1.19,1.28V9h-1V4.77h1v.55a1.86,1.86,0,0,1,1.47-.59A1.67,1.67,0,0,1,19.45,6.6Z"/><path class="cls-2" d="M24.94,3.11V9H24V8.49a1.74,1.74,0,0,1-1.41.61,2.08,2.08,0,0,1-2.16-2.19,2.07,2.07,0,0,1,2.16-2.18,1.73,1.73,0,0,1,1.37.57V3.11Zm-1,3.8a1.27,1.27,0,1,0-2.54,0,1.27,1.27,0,1,0,2.54,0Z"/><path class="cls-3" d="M20.41,20.7V47.41H16.09V44.93a7.93,7.93,0,0,1-6.37,2.73C4.14,47.66,0,43.78,0,37.8S4.14,28,9.72,28a7.85,7.85,0,0,1,6.19,2.59V20.7ZM16,37.8c0-3.67-2.48-6-5.72-6s-5.72,2.34-5.72,6,2.48,6,5.72,6S16,41.47,16,37.8Zm29-9.61V47.41H40.64V45a7.84,7.84,0,0,1-6.19,2.7c-4.93,0-8.28-2.7-8.28-8.49v-11h4.5V38.56c0,3.49,1.66,5.15,4.5,5.15,3.13,0,5.26-2,5.26-5.8V28.19ZM69.77,36.4v11h-4.5V37c0-3.42-1.7-5.07-4.58-5.07-3.2,0-5.36,1.94-5.36,5.79v9.72h-4.5V28.19h4.29v2.48A8.35,8.35,0,0,1,61.74,28C66.35,28,69.77,30.6,69.77,36.4Zm25-8.21V44.5c0,7-3.64,10.15-10.37,10.15-3.6,0-7.16-.94-9.36-2.74l2-3.38a11.63,11.63,0,0,0,7.09,2.3c4.25,0,6.12-1.94,6.12-5.83V44a8.45,8.45,0,0,1-6.44,2.56c-5.51,0-9.72-3.74-9.72-9.32S78.3,28,83.81,28a8.32,8.32,0,0,1,6.66,2.77V28.19Zm-4.43,9c0-3.24-2.45-5.44-5.83-5.44s-5.87,2.2-5.87,5.44,2.45,5.5,5.87,5.5S90.32,40.5,90.32,37.23Zm28.33,2H103.57c.54,2.81,2.88,4.61,6.23,4.61A6.87,6.87,0,0,0,115,41.76l2.41,2.77c-1.73,2-4.43,3.13-7.74,3.13-6.44,0-10.62-4.14-10.62-9.86A9.56,9.56,0,0,1,109,28c5.61,0,9.71,3.92,9.71,9.93C118.72,38.27,118.69,38.81,118.65,39.24Zm-15.12-3h10.91A5.23,5.23,0,0,0,109,31.57,5.33,5.33,0,0,0,103.53,36.25Zm17.93,1.55c0-5.76,4.32-9.82,10.23-9.82S141.94,32,141.94,37.8s-4.28,9.86-10.25,9.86S121.46,43.56,121.46,37.8Zm16,0c0-3.67-2.45-6-5.72-6s-5.69,2.34-5.69,6,2.45,6,5.69,6S137.41,41.47,137.41,37.8Zm27.79-1.4v11h-4.5V37c0-3.42-1.69-5.07-4.57-5.07-3.2,0-5.36,1.94-5.36,5.79v9.72h-4.5V28.19h4.28v2.48A8.37,8.37,0,0,1,157.17,28C161.78,28,165.2,30.6,165.2,36.4Zm34.6,0v11h-4.5V37c0-3.42-1.7-5.07-4.58-5.07-3.2,0-5.36,1.94-5.36,5.79v9.72h-4.5V20.7h4.5v9.72A8.58,8.58,0,0,1,191.77,28C196.38,28,199.8,30.6,199.8,36.4Zm23.9,2.84H208.62c.54,2.81,2.88,4.61,6.22,4.61a6.86,6.86,0,0,0,5.22-2.09l2.42,2.77c-1.73,2-4.43,3.13-7.74,3.13-6.45,0-10.62-4.14-10.62-9.86A9.55,9.55,0,0,1,214.05,28c5.62,0,9.72,3.92,9.72,9.93C223.77,38.27,223.73,38.81,223.7,39.24Zm-15.12-3h10.91a5.24,5.24,0,0,0-5.44-4.68A5.32,5.32,0,0,0,208.58,36.25ZM228.09,20.7h4.5V47.41h-4.5Zm30.82,17.1c0,6-4.14,9.86-9.76,9.86A7.85,7.85,0,0,1,243,45.07V54.4h-4.5V28.19h4.28v2.52A7.93,7.93,0,0,1,249.15,28C254.77,28,258.91,31.86,258.91,37.8Zm-4.58,0c0-3.67-2.44-6-5.68-6a5.62,5.62,0,0,0-5.73,6,5.62,5.62,0,0,0,5.73,6C251.89,43.81,254.33,41.47,254.33,37.8Zm26.86,1.44H266.11c.54,2.81,2.88,4.61,6.22,4.61a6.86,6.86,0,0,0,5.22-2.09L280,44.53c-1.73,2-4.43,3.13-7.74,3.13-6.45,0-10.62-4.14-10.62-9.86A9.55,9.55,0,0,1,271.54,28c5.62,0,9.72,3.92,9.72,9.93C281.26,38.27,281.23,38.81,281.19,39.24Zm-15.12-3H277a5.24,5.24,0,0,0-5.44-4.68A5.32,5.32,0,0,0,266.07,36.25ZM296.71,28v4.28a6,6,0,0,0-1-.11c-3.42,0-5.58,2-5.58,5.94v9.32h-4.5V28.19h4.29V31C291.16,29,293.5,28,296.71,28Z"/><rect class="cls-4" y="60.37" width="296.71" height="20.03" rx="5"/><text class="cls-5" transform="translate(65.13 74.2)">MAKE THE A<tspan class="cls-6" x="66.45" y="0">D</tspan><tspan class="cls-7" x="74.47" y="0">V</tspan><tspan x="81.98" y="0">EN</tspan><tspan class="cls-8" x="96.76" y="0">T</tspan><tspan x="103" y="0">URE EASIER</tspan></text></g></g></svg>