<svg xmlns="http://www.w3.org/2000/svg" xmlns:xlink="http://www.w3.org/1999/xlink" viewBox="0 0 1242.13 336.61"><defs><style>.cls-1{fill:url(#linear-gradient);}.cls-2{fill:#fff;}.cls-3{fill:url(#New_Gradient_Swatch);}.cls-4{fill:#bcbec0;}</style><linearGradient id="linear-gradient" x1="20.19" y1="71.36" x2="104.25" y2="-12.7" gradientUnits="userSpaceOnUse"><stop offset="0" stop-color="#bc3d2f"/><stop offset="1" stop-color="#8c43ac"/></linearGradient><linearGradient id="New_Gradient_Swatch" y1="157.73" x2="1242.13" y2="157.73" gradientUnits="userSpaceOnUse"><stop offset="0" stop-color="#5485ee"/><stop offset="1" stop-color="#42d7dd"/></linearGradient></defs><g id="Layer_2" data-name="Layer 2"><g id="Layer_1-2" data-name="Layer 1"><path class="cls-1" d="M25.58,0h80.77a25.58,25.58,0,0,1,25.58,25.58v0a25.58,25.58,0,0,1-25.58,25.58H0a0,0,0,0,1,0,0V25.58A25.58,25.58,0,0,1,25.58,0Z"/><path class="cls-2" d="M51.23,20l-6.6,17.88h-4L36,25.54,31.31,37.86h-4L20.73,20h3.95L29.4,33.17,34.32,20h3.52l4.82,13.26L47.51,20Z"/><path class="cls-2" d="M53.55,14.53A2.56,2.56,0,0,1,56.23,12a2.5,2.5,0,0,1,2.68,2.42,2.68,2.68,0,0,1-5.36.1ZM54.12,20h4.19V37.86H54.12Z"/><path class="cls-2" d="M81.41,27.61V37.86H77.22V28.15c0-3.18-1.57-4.72-4.25-4.72-3,0-5,1.81-5,5.39v9H63.8V20h4v2.31a7.79,7.79,0,0,1,6.16-2.51C78.23,19.78,81.41,22.22,81.41,27.61Z"/><path class="cls-2" d="M104.42,13V37.86h-4V35.55a7.4,7.4,0,0,1-5.93,2.54c-5.18,0-9-3.62-9-9.17s3.85-9.14,9-9.14a7.32,7.32,0,0,1,5.76,2.41V13Zm-4.12,15.9a5.33,5.33,0,1,0-10.65,0,5.33,5.33,0,1,0,10.65,0Z"/><path class="cls-3" d="M85.44,86.68V198.49H67.36v-10.4c-6.33,7.69-15.67,11.45-26.67,11.45C17.33,199.54,0,183.27,0,158.25s17.33-41.14,40.69-41.14c10.4,0,19.59,3.47,25.92,10.86V86.68ZM66.91,158.25c0-15.37-10.4-25.16-24-25.16s-24,9.79-24,25.16,10.39,25.17,24,25.17S66.91,173.62,66.91,158.25ZM188.08,118v80.47H170.14V188.24c-6,7.38-15.52,11.3-25.92,11.3-20.64,0-34.65-11.3-34.65-35.56V118H128.4v43.4c0,14.62,6.93,21.55,18.84,21.55,13.11,0,22-8.14,22-24.27V118Zm104,34.36v46.11H273.23v-43.7c0-14.32-7.08-21.25-19.14-21.25-13.41,0-22.45,8.14-22.45,24.26v40.69H212.8V118h17.93v10.4c6.18-7.39,16-11.31,27.73-11.31C277.75,117.11,292.07,128.11,292.07,152.38ZM396.66,118v68.26c0,29.24-15.22,42.5-43.4,42.5-15.07,0-30-3.92-39.18-11.46l8.44-14.16c7.08,5.88,18.53,9.64,29.68,9.64,17.79,0,25.62-8.13,25.62-24.41v-4.22c-6.63,7.24-16.12,10.7-27,10.7-23.06,0-40.69-15.67-40.69-39s17.63-38.73,40.69-38.73c11.3,0,21.24,3.62,27.87,11.61V118Zm-18.54,37.82c0-13.56-10.24-22.75-24.41-22.75s-24.56,9.19-24.56,22.75c0,13.72,10.24,23.06,24.56,23.06S378.12,169.56,378.12,155.84Zm118.61,8.44H433.59c2.26,11.76,12.05,19.29,26.07,19.29,9,0,16.12-2.86,21.85-8.74l10.09,11.6c-7.23,8.59-18.53,13.11-32.4,13.11-27,0-44.45-17.33-44.45-41.29s17.63-41.14,41.59-41.14c23.51,0,40.69,16.43,40.69,41.59C497,160.21,496.88,162.47,496.73,164.28Zm-63.29-12.51h45.65c-1.5-11.6-10.39-19.59-22.75-19.59C444.13,132.18,435.24,140,433.44,151.77Zm75.05,6.48c0-24.11,18.08-41.14,42.8-41.14,25,0,42.94,17,42.94,41.14s-17.93,41.29-42.94,41.29C526.57,199.54,508.49,182.36,508.49,158.25Zm66.76,0c0-15.37-10.25-25.16-24-25.16s-23.81,9.79-23.81,25.16,10.24,25.17,23.81,25.17S575.25,173.62,575.25,158.25Zm116.34-5.87v46.11H672.75v-43.7c0-14.32-7.08-21.25-19.13-21.25-13.41,0-22.46,8.14-22.46,24.26v40.69H612.33V118h17.93v10.4c6.18-7.39,16-11.31,27.73-11.31C677.28,117.11,691.59,128.11,691.59,152.38Zm144.83,0v46.11H817.59v-43.7c0-14.32-7.09-21.25-19.14-21.25C785,133.54,776,141.68,776,157.8v40.69H757.16V86.68H776v40.68c6.17-6.63,15.67-10.25,26.82-10.25C822.11,117.11,836.42,128.11,836.42,152.38Zm100.07,11.9H873.35c2.26,11.76,12.06,19.29,26.07,19.29,9,0,16.13-2.86,21.85-8.74l10.1,11.6c-7.24,8.59-18.54,13.11-32.4,13.11-27,0-44.45-17.33-44.45-41.29s17.63-41.14,41.59-41.14c23.51,0,40.68,16.43,40.68,41.59C936.79,160.21,936.64,162.47,936.49,164.28ZM873.2,151.77h45.66c-1.51-11.6-10.4-19.59-22.75-19.59S875,140,873.2,151.77Zm81.69-65.09h18.83V198.49H954.89Zm129,71.57c0,25-17.33,41.29-40.83,41.29-10.25,0-19.29-3.46-25.77-10.85v39H998.44V118h17.93v10.55c6.33-7.69,15.67-11.46,26.68-11.46C1066.55,117.11,1083.88,133.39,1083.88,158.25Zm-19.14,0c0-15.37-10.24-25.16-23.8-25.16s-24,9.79-24,25.16,10.39,25.17,24,25.17S1064.74,173.62,1064.74,158.25Zm112.43,6H1114c2.26,11.76,12.06,19.29,26.07,19.29,9,0,16.12-2.86,21.85-8.74l10.1,11.6c-7.24,8.59-18.54,13.11-32.4,13.11-27,0-44.46-17.33-44.46-41.29s17.63-41.14,41.6-41.14c23.51,0,40.68,16.43,40.68,41.59C1177.47,160.21,1177.32,162.47,1177.17,164.28Zm-63.29-12.51h45.66c-1.5-11.6-10.4-19.59-22.75-19.59S1115.69,140,1113.88,151.77Zm128.25-34.66v17.94a24,24,0,0,0-4.37-.46c-14.31,0-23.36,8.44-23.36,24.87v39h-18.83V118h17.93v11.75C1218.93,121.33,1228.72,117.11,1242.13,117.11Z"/><rect class="cls-4" y="252.75" width="1242.13" height="83.86" rx="20.93"/><path class="cls-2" d="M259.52,309.61l-.07-13.35L253,307.13H249.8l-6.44-10.51v13h-6.59v-25.2h5.87L251.49,299l8.64-14.55H266l.07,25.2Z"/><path class="cls-2" d="M295.2,304.72H284.54l-2,4.89h-7.27l11.12-25.2h7l11.16,25.2h-7.42Zm-2.09-5.26-3.24-8.06-3.24,8.06Z"/><path class="cls-2" d="M323.53,300.47l-2.66,2.84v6.3h-7.06v-25.2h7.06v10.48l9.75-10.48h7.85l-10.3,11.16,10.84,14h-8.28Z"/><path class="cls-2" d="M368.31,304.1v5.51H348.08v-25.2h19.76v5.51h-12.7v4.25h11.19v5.33H355.14v4.6Z"/><path class="cls-2" d="M402.51,290.07h-7.74v-5.66h22.57v5.66h-7.7v19.54h-7.13Z"/><path class="cls-2" d="M451.18,284.41v25.2h-7.13v-9.83h-9.71v9.83h-7.13v-25.2h7.13v9.47h9.71v-9.47Z"/><path class="cls-2" d="M483.65,304.1v5.51H463.42v-25.2h19.77v5.51H470.48v4.25h11.19v5.33H470.48v4.6Z"/><path class="cls-2" d="M529.37,304.72H518.72l-2,4.89h-7.27l11.12-25.2h7l11.16,25.2h-7.42Zm-2.08-5.26-3.24-8.06-3.24,8.06Z"/><path class="cls-2" d="M548,284.41H559.9c8.35,0,14.08,4.86,14.08,12.6s-5.73,12.6-14.08,12.6H548Zm11.62,19.51c4.29,0,7.17-2.55,7.17-6.91s-2.88-6.91-7.17-6.91h-4.5v13.82Z"/><path class="cls-2" d="M609.62,284.41l-10.8,25.2h-7L581,284.41h7.7l6.84,16.42,7-16.42Z"/><path class="cls-2" d="M638.52,304.1v5.51H618.3v-25.2h19.76v5.51H625.35v4.25h11.2v5.33h-11.2v4.6Z"/><path class="cls-2" d="M673.66,284.41v25.2h-5.87l-11.12-13.43v13.43h-7v-25.2h5.86l11.13,13.43V284.41Z"/><path class="cls-2" d="M691.27,290.07h-7.74v-5.66H706.1v5.66h-7.71v19.54h-7.12Z"/><path class="cls-2" d="M715.35,298.38v-14h7.13v13.76c0,4.31,1.8,6,4.79,6s4.75-1.73,4.75-6V284.41h7v14c0,7.52-4.39,11.74-11.85,11.74S715.35,305.9,715.35,298.38Z"/><path class="cls-2" d="M762.08,302.92h-3.89v6.69h-7.13v-25.2h11.52c6.88,0,11.2,3.57,11.2,9.33a8.35,8.35,0,0,1-4.93,7.95l5.43,7.92h-7.63Zm.07-12.89h-4v7.38h4c3,0,4.43-1.37,4.43-3.67S765.1,290,762.15,290Z"/><path class="cls-2" d="M805.13,304.1v5.51H784.9v-25.2h19.77v5.51H792v4.25h11.19v5.33H792v4.6Z"/><path class="cls-2" d="M854.2,304.1v5.51H834v-25.2h19.76v5.51H841v4.25h11.19v5.33H841v4.6Z"/><path class="cls-2" d="M882.24,304.72H871.59l-2,4.89h-7.27l11.12-25.2h7l11.16,25.2h-7.42Zm-2.08-5.26-3.24-8.06-3.24,8.06Z"/><path class="cls-2" d="M899.09,307.34l2.34-5.25a16,16,0,0,0,8.32,2.48c3,0,4.1-.83,4.1-2.05,0-4-14.32-1.08-14.32-10.44,0-4.5,3.67-8.17,11.16-8.17a18.89,18.89,0,0,1,9.14,2.2l-2.2,5.29a14.85,14.85,0,0,0-7-1.95c-3,0-4.07,1-4.07,2.27,0,3.85,14.29,1,14.29,10.26,0,4.39-3.67,8.14-11.16,8.14C905.57,310.12,901.47,309,899.09,307.34Z"/><path class="cls-2" d="M931.35,284.41h7.13v25.2h-7.13Z"/><path class="cls-2" d="M971,304.1v5.51H950.75v-25.2h19.76v5.51h-12.7v4.25H969v5.33H957.81v4.6Z"/><path class="cls-2" d="M993.16,302.92h-3.89v6.69h-7.13v-25.2h11.52c6.88,0,11.2,3.57,11.2,9.33a8.35,8.35,0,0,1-4.93,7.95l5.43,7.92h-7.63Zm.07-12.89h-4v7.38h4c2.95,0,4.43-1.37,4.43-3.67S996.18,290,993.23,290Z"/></g></g></svg>